<svg width="691" height="295" viewBox="0 0 691 295" fill="none" xmlns="http://www.w3.org/2000/svg">
<path d="M553.688 293.743H554.046L555.022 293.886L616.785 294.154C620.464 294.172 623.438 291.101 623.459 287.332L623.725 221.769C625.529 219.29 628.825 218.089 631.788 219.646C637.281 222.52 643.489 224.163 650.072 224.163C681.176 224.201 704.145 188.158 681.723 154.372C680.589 152.676 679.107 151.135 677.451 149.96C661.273 138.44 644.717 138.333 631.957 144.958C629.08 146.442 625.912 145.477 624.067 143.228L624.327 78.0762C624.353 74.4152 621.537 71.4162 618.006 71.2542L615.865 70.8432L557.101 70.8072C552.86 70.0562 550.156 65.2882 552.257 61.1982C555.165 55.4492 556.846 48.9142 556.876 41.9822C556.978 18.5322 538.301 -0.465739 515.42 0.0142611C492.512 -0.593739 473.758 18.3172 473.733 41.7702C473.748 48.7142 475.363 55.2523 478.296 61.0193C480.356 65.1093 477.627 69.8773 473.375 70.6133L414.591 70.3453L412.47 70.7362C409.946 70.8432 407.826 72.4322 406.783 74.6662C407.141 75.6832 407.366 76.7913 407.366 77.9363L407.254 145.208L403.57 144.477C401.899 145.208 399.988 145.333 398.164 144.37L397.024 143.869C395.042 143.887 393.002 144.03 390.897 144.334L390.361 144.406L389.824 144.317C387.499 143.888 385.43 143.512 383.437 143.512C364.587 143.548 348.981 158.101 346.62 177.015C346.41 178.64 346.267 180.285 346.267 181.982C346.267 188.768 348.086 196.019 352.005 203.359C352.848 204.948 353.691 206.556 354.749 208.163C355.658 209.52 356.854 210.754 358.178 211.679C366.834 217.808 375.332 220.273 383.242 220.289C385.357 220.273 387.432 220.095 389.466 219.772L390.002 219.665L390.538 219.755C392.255 220.039 393.594 220.307 394.836 220.452C395.878 220.023 396.931 219.594 397.943 219.057C400.084 217.951 402.394 218.308 404.177 219.504L407.12 218.914L407.013 287.208C407.013 288.082 406.86 288.941 406.66 289.763C407.738 292.029 409.946 293.636 412.572 293.636L474.351 293.675L475.296 293.547H475.669C480.932 293.565 483.855 287.601 481.019 283.01C472.869 269.76 471.816 251.471 483.278 233.63C485.767 230.61 488.653 227.986 491.868 225.789C499.656 221.126 507.489 219.021 514.878 218.934C522.257 219.056 530.065 221.218 537.832 225.899C541.025 228.112 543.913 230.754 546.391 233.791C557.766 251.684 556.59 269.972 548.368 283.189C545.543 287.759 548.43 293.743 553.688 293.743Z" fill="#D7FDF2"/>
<path d="M232.211 144.412C239.891 137.555 249.907 133.357 260.908 133.324L260.924 136.609V133.324C263.591 133.324 265.937 133.786 268.103 134.162C270.321 133.876 272.534 133.682 274.746 133.664C275.834 133.664 276.927 133.715 278.026 133.82L278.108 74.494C278.108 72.619 276.775 71.265 275.211 71.085L274.991 71.0291L274.485 71.011L273.999 70.835L273.013 70.6381L213.953 70.743L213.667 70.6901C209.048 69.8521 205.864 66.0471 205.435 61.6021L205.271 60.71C205.271 59.315 205.603 57.887 206.262 56.512H206.231L206.364 56.1721L206.44 56.0651C209.062 50.7761 210.574 44.867 210.574 38.543V38.454C210.574 34.741 209.884 31.1521 208.857 27.5601C204.237 11.6321 190.139 0.0400391 173.348 0.0400391L172.49 0.0580444H172.398H172.301L171.407 0.0400391C163.507 0.0400391 156.256 2.66703 150.257 7.04303C143.497 11.972 138.341 19.115 135.909 27.559C135.311 29.595 134.892 31.649 134.59 33.721C134.355 35.274 134.166 36.8281 134.166 38.4171V38.4351V38.5421C134.166 44.8651 135.689 50.775 138.326 56.043L138.407 56.189L138.463 56.35L138.545 56.5471L138.519 56.562C139.137 57.901 139.48 59.332 139.48 60.725L139.327 61.53C138.928 66.011 135.73 69.8511 131.095 70.6901L130.814 70.743L71.754 70.6381L71.274 70.7271L70.758 70.834L70.278 71.01L69.762 71.028C68.101 71.1 66.644 72.5301 66.629 74.4771L66.741 140.839L65.969 141.787C64.119 144 61.396 145.413 58.386 145.413C56.884 145.413 55.326 145.056 53.92 144.304C48.892 141.698 43.256 140.216 37.236 140.216C29.29 140.216 20.634 142.786 11.912 148.984C10.593 149.914 9.372 151.143 8.483 152.502C2.509 161.45 0 170.397 0 178.667C0 199.953 16.699 217.099 37.134 217.132H37.2C43.204 217.132 48.866 215.668 53.894 213.044C55.269 212.331 56.766 211.973 58.222 211.973C61.518 211.973 64.43 213.688 66.244 216.204L66.882 217.098L66.985 283.729C66.985 285.709 68.523 287.194 70.255 287.194L131.784 287.089L132.76 286.943H133.01H133.368C134.354 286.925 134.988 286.585 135.55 286.015C136.086 285.407 136.429 284.533 136.429 283.603L135.846 281.551C131.533 274.583 129.03 266.298 129.03 257.44C129.03 248.137 131.8 238.203 137.967 228.558L138.085 228.382L138.202 228.241C140.895 224.971 144.033 222.114 147.502 219.738L147.584 219.684L147.656 219.631C155.908 214.667 164.34 212.362 172.327 212.219H172.352H172.429C180.421 212.362 188.842 214.667 197.085 219.631L197.167 219.667L197.254 219.739C200.724 222.115 203.856 224.972 206.544 228.242L206.672 228.403L206.784 228.558C212.946 238.203 215.727 248.137 215.711 257.457C215.711 266.297 213.228 274.582 208.9 281.568L208.307 283.602C208.302 284.532 208.66 285.406 209.201 286.014C209.748 286.584 210.397 286.923 211.383 286.942H211.976L212.211 286.98L212.947 287.087L274.496 287.192C276.223 287.192 277.766 285.708 277.772 283.727L277.879 223.558C276.494 223.737 275.058 223.865 273.561 223.865H273.541C270.996 223.847 268.993 223.29 267.312 223.006C265.155 223.328 262.978 223.558 260.73 223.558C251.732 223.558 242.161 220.702 232.815 214.363L231.757 213.719C229.78 212.291 228.022 210.505 226.637 208.433C223.117 203.164 220.684 197.792 219.12 192.467C218.64 190.809 218.277 189.145 217.965 187.505C217.387 184.468 217.025 181.465 217.025 178.52C217.025 164.916 222.896 152.715 232.211 144.412Z" fill="#0076FF"/>
</svg>
